<?xml version="1.0" encoding="UTF-8" standalone="no"?>
<svg
   xmlns:dc="http://purl.org/dc/elements/1.1/"
   xmlns:cc="http://creativecommons.org/ns#"
   xmlns:rdf="http://www.w3.org/1999/02/22-rdf-syntax-ns#"
   xmlns:svg="http://www.w3.org/2000/svg"
   xmlns="http://www.w3.org/2000/svg"
   xmlns:sodipodi="http://sodipodi.sourceforge.net/DTD/sodipodi-0.dtd"
   xmlns:inkscape="http://www.inkscape.org/namespaces/inkscape"
   sodipodi:docname="drawing.svg"
   inkscape:version="1.0 (4035a4fb49, 2020-05-01)"
   id="svg8"
   version="1.1"
   viewBox="0 0 210 297"
   height="297mm"
   width="210mm">
  <defs
     id="defs2" />
  <sodipodi:namedview
     inkscape:window-maximized="1"
     inkscape:window-y="-11"
     inkscape:window-x="-11"
     inkscape:window-height="986"
     inkscape:window-width="1920"
     showgrid="false"
     inkscape:document-rotation="0"
     inkscape:current-layer="layer1"
     inkscape:document-units="mm"
     inkscape:cy="319.22083"
     inkscape:cx="469.34389"
     inkscape:zoom="0.7"
     inkscape:pageshadow="2"
     inkscape:pageopacity="0.0"
     borderopacity="1.0"
     bordercolor="#666666"
     pagecolor="#ffffff"
     id="base" />
  <metadata
     id="metadata5">
    <rdf:RDF>
      <cc:Work
         rdf:about="">
        <dc:format>image/svg+xml</dc:format>
        <dc:type
           rdf:resource="http://purl.org/dc/dcmitype/StillImage" />
        <dc:title></dc:title>
      </cc:Work>
    </rdf:RDF>
  </metadata>
  <g
     id="layer1"
     inkscape:groupmode="layer"
     inkscape:label="Layer 1">
    <g
       transform="matrix(1.0820316,0,0,1.0832182,45.543967,77.034301)"
       id="g71">
      <g
         id="g48">
        <g
           id="g46">
          <g
             id="g40">
            <g
               id="g38">
              <path
                 d="m 27.6,95.3 c -0.13,0 -0.27,-0.01 -0.4,-0.04 -0.66,-0.14 -1.21,-0.59 -1.45,-1.22 L 19.78,79.11 c -0.41,-1.03 0.09,-2.19 1.11,-2.6 1.02,-0.41 2.19,0.09 2.6,1.11 l 4.85,12.11 3.14,-3.14 -1.38,-10.96 c -0.08,-0.64 0.15,-1.28 0.63,-1.72 L 50.14,56 c 0.48,-0.44 1.15,-0.62 1.78,-0.48 0.64,0.14 1.17,0.58 1.42,1.18 l 13.78,33.08 4.65,-4.65 -5.84,-42.31 c -0.09,-0.65 0.15,-1.31 0.64,-1.75 L 86.38,23.06 c 0.82,-0.74 2.08,-0.68 2.83,0.13 0.74,0.82 0.68,2.08 -0.13,2.83 l -19.03,17.3 5.83,42.25 c 0.09,0.62 -0.12,1.25 -0.57,1.69 l -7.47,7.46 c -0.47,0.47 -1.14,0.68 -1.8,0.55 -0.65,-0.13 -1.2,-0.58 -1.46,-1.19 L 50.75,60.88 34.2,76.15 35.57,87.07 c 0.08,0.61 -0.13,1.23 -0.57,1.66 l -5.97,5.97 c -0.39,0.39 -0.9,0.6 -1.43,0.6 z"
                 id="path36" />
            </g>
          </g>
          <g
             id="g44">
            <path
               d="m 21.63,80.37 c -0.24,0 -0.48,-0.04 -0.72,-0.14 L 5.98,74.46 C 5.35,74.22 4.89,73.68 4.75,73.02 4.61,72.36 4.8,71.68 5.27,71.2 l 5.97,-6.17 c 0.44,-0.46 1.08,-0.68 1.72,-0.59 L 22.37,65.79 39.04,47.84 6,35.45 C 5.36,35.21 4.89,34.66 4.75,34 4.61,33.34 4.81,32.64 5.29,32.16 l 7.46,-7.46 c 0.44,-0.44 1.07,-0.65 1.69,-0.57 L 56.69,29.96 74,10.93 C 79.16,5.77 83.8,4.7 86.81,4.7 c 0,0 0,0 0.01,0 2.99,0 5.38,1.05 6.41,2.08 1.03,1.03 2.08,3.41 2.08,6.4 0,3 -1.07,7.65 -6.16,12.75 -0.78,0.78 -2.05,0.78 -2.83,0 -0.78,-0.78 -0.78,-2.05 0,-2.83 C 94.17,15.25 90.43,9.64 90.39,9.59 90.37,9.57 84.75,5.84 76.91,13.69 L 58.94,33.43 c -0.44,0.49 -1.1,0.72 -1.75,0.64 L 14.88,28.23 10.31,32.8 43.23,45.15 c 0.62,0.23 1.09,0.76 1.24,1.41 0.15,0.65 -0.03,1.33 -0.48,1.82 l -19.41,20.9 c -0.45,0.48 -1.1,0.71 -1.75,0.62 l -9.44,-1.35 -3.16,3.27 12.12,4.69 c 1.03,0.4 1.54,1.56 1.14,2.59 -0.3,0.78 -1.06,1.27 -1.86,1.27 z"
               id="path42" />
          </g>
        </g>
      </g>
      <text
         x="0"
         y="115"
         fill="#000000"
         font-size="5px"
         font-weight="bold"
         font-family="'Helvetica Neue', Helvetica, Arial-Unicode, Arial, Sans-serif"
         id="text50" />
      <text
         style="fill:#ffffff;"
         x="0"
         y="120"
         fill="#000000"
         font-size="5px"
         font-weight="bold"
         font-family="'Helvetica Neue', Helvetica, Arial-Unicode, Arial, Sans-serif"
         id="text52" />
    </g>
    <path
       inkscape:export-ydpi="96"
       inkscape:export-xdpi="96"
       transform="scale(0.26458333)"
       id="path73"
       d="m 280.40551,678.1494 c -1.2311,-1.375 -7.20731,-15.03571 -13.28048,-30.35714 -6.07318,-15.32143 -11.75484,-28.56898 -12.62592,-29.43898 -0.87109,-0.87001 -13.79808,-6.25081 -28.72665,-11.95734 -30.70838,-11.73846 -33.57143,-13.21558 -33.57143,-17.32047 0,-3.30636 26.1995,-32.30669 29.85635,-33.0481 1.25758,-0.25499 10.0008,0.66401 19.42937,2.0422 9.42857,1.37819 18.51426,2.52246 20.19043,2.54281 3.66029,0.0444 71.61098,-72.36241 69.62591,-74.19195 -0.6847,-0.63106 -30.81634,-12.19872 -66.9592,-25.70589 -36.14286,-13.50718 -67.16071,-25.4909 -68.92857,-26.63047 -6.19716,-3.99476 -4.19019,-7.61625 14.41311,-26.00786 9.69506,-9.58475 18.4636,-17.42681 19.48563,-17.42681 1.02204,0 38.89328,5.10387 84.15833,11.34193 45.26504,6.23807 84.31377,11.54164 86.77497,11.78572 4.21256,0.41776 6.6911,-1.98921 42.27886,-41.05794 45.13821,-49.55334 51.82237,-55.01009 73.55883,-60.05111 17.17296,-3.98267 33.51013,0.88322 39.96898,11.90442 6.9597,11.87582 5.9024,32.61219 -2.50285,49.08786 -5.52825,10.83626 -17.4698,23.26147 -55.993,58.26083 -21.80357,19.80913 -39.64286,36.22606 -39.64286,36.48205 0,0.256 5.43159,39.86637 12.0702,88.02307 11.91913,86.4617 12.03694,87.6038 9.41304,91.24753 -5.64873,7.84421 -32.58243,32.97564 -35.34044,32.97564 -1.56356,0 -3.83404,-1.125 -5.04553,-2.5 -1.21147,-1.375 -14.88768,-33.03572 -30.39156,-70.35714 -15.50388,-37.32143 -28.33547,-68.02673 -28.51462,-68.234 -0.78543,-0.90865 -68.60641,62.83984 -68.4904,64.3777 0.0711,0.94238 1.31803,11.86582 2.77098,24.27428 l 2.64171,22.56086 -14.88831,14.93914 c -8.18857,8.21655 -15.92516,14.93916 -17.19242,14.93916 -1.26726,0 -3.31137,-1.125 -4.54246,-2.5 z m 14.67214,-25.37633 6.54619,-6.44774 -2.77652,-22.6264 c -1.52708,-12.44452 -2.32428,-24.16803 -1.77155,-26.05225 1.46347,-4.98892 80.97028,-77.5942 85.58402,-78.15497 2.56014,-0.31117 4.27292,0.54087 5.74336,2.85715 1.15243,1.8153 14.47623,33.1934 29.60847,69.72911 15.13224,36.53571 27.75363,66.72044 28.04751,67.07717 0.29389,0.35675 5.00289,-3.82183 10.46443,-9.28571 l 9.9301,-9.93432 -12.08153,-87.49988 c -6.64482,-48.12495 -11.74048,-88.38862 -11.32365,-89.47483 0.41681,-1.08622 20.24611,-19.69029 44.06508,-41.34239 45.51389,-41.37334 52.88883,-49.65199 57.21773,-64.22895 4.05496,-13.65455 1.92317,-25.30892 -5.314,-29.05141 -6.62483,-3.42583 -22.5166,-2.08986 -31.88403,2.68039 -11.50393,5.85825 -19.51777,13.59997 -58.35584,56.37433 -20.13247,22.17292 -37.72317,40.86622 -39.09044,41.54068 -1.57709,0.77795 -34.50566,-3.21914 -90.0683,-10.93311 l -87.58236,-12.15937 -9.49436,9.49436 c -5.2219,5.2219 -9.14386,9.84487 -8.71547,10.27326 0.4284,0.42839 30.93435,12.1128 67.79101,25.96534 36.85666,13.85254 68.13711,26.1612 69.51211,27.35257 1.375,1.19137 2.5,3.31747 2.5,4.72467 0,3.12289 -80.24215,90.08183 -84.68951,91.77857 -1.97571,0.75377 -10.42451,0.13546 -22.45335,-1.6432 l -19.28572,-2.85171 -6.78571,6.5895 c -3.73214,3.62423 -6.78571,6.99624 -6.78571,7.49337 0,0.49714 11.41071,5.28744 25.35714,10.64511 13.94643,5.35767 26.04244,10.43937 26.88003,11.29267 0.83758,0.8533 5.98044,12.95822 11.42857,26.89982 5.44813,13.9416 10.20503,25.35231 10.5709,25.35714 0.36587,0.004 3.611,-2.8927 7.2114,-6.43897 z"
       style="fill:#ffffff;stroke-width:1.42857" />
  </g>
</svg>
